<svg width="736" height="487" viewBox="0 0 736 487" fill="none" xmlns="http://www.w3.org/2000/svg">
<g clip-path="url(#clip0_737_522)">
<path d="M616.538 391.154H172.106C162.51 391.154 154.745 383.384 154.745 373.82V55.6591C154.745 46.0779 162.527 38.3249 172.106 38.3249H616.538C626.134 38.3249 633.899 46.0948 633.899 55.6591V373.82C633.899 383.401 626.134 391.154 616.538 391.154Z" fill="#CACAFF"/>
<path d="M265.73 192.674H247.69V236.568H265.73V192.674Z" fill="white"/>
<path d="M291.348 186.563H273.309V236.585H291.348V186.563Z" fill="#41BCBC"/>
<path d="M316.95 176.965H298.91V236.568H316.95V176.965Z" fill="#6A6AE2"/>
<path d="M342.551 155.026H324.511V236.568H342.551V155.026Z" fill="#171659"/>
<path d="M368.153 132.529H350.113V236.585H368.153V132.529Z" fill="white"/>
<path d="M393.771 144.125H375.731V236.568H393.771V144.125Z" fill="#41BCBC"/>
<path d="M419.373 136.879H401.333V236.568H419.373V136.879Z" fill="#6A6AE2"/>
<path d="M200.302 102.329V236.585H441.515" stroke="#130F40" stroke-width="0.75" stroke-miterlimit="10" stroke-linecap="round" stroke-linejoin="round"/>
<path d="M217.189 214.816L264.39 159.495L284.193 180.52L364.948 112.452L390.821 136.016L431.02 104.801" stroke="#6A6AE2" stroke-width="2" stroke-miterlimit="10" stroke-linecap="round" stroke-linejoin="round"/>
<path d="M431.021 107.272C432.388 107.272 433.496 106.166 433.496 104.801C433.496 103.436 432.388 102.329 431.021 102.329C429.653 102.329 428.545 103.436 428.545 104.801C428.545 106.166 429.653 107.272 431.021 107.272Z" fill="#130F40"/>
<path d="M219.681 214.816C219.681 216.187 218.579 217.287 217.206 217.287C215.833 217.287 214.73 216.187 214.73 214.816C214.73 213.444 215.833 212.344 217.206 212.344C218.562 212.344 219.681 213.444 219.681 214.816Z" fill="#130F40"/>
<path d="M311.592 273.979H200.302V332.008H311.592V273.979Z" fill="white"/>
<path d="M345.959 273.979H410.336" stroke="#6A6AE2" stroke-width="0.75" stroke-miterlimit="10" stroke-linecap="round" stroke-linejoin="round"/>
<path d="M345.959 285.574H441.515" stroke="#6A6AE2" stroke-width="0.75" stroke-miterlimit="10" stroke-linecap="round" stroke-linejoin="round"/>
<path d="M345.959 297.187H441.515" stroke="#6A6AE2" stroke-width="0.75" stroke-miterlimit="10" stroke-linecap="round" stroke-linejoin="round"/>
<path d="M345.959 308.783H441.515" stroke="#6A6AE2" stroke-width="0.75" stroke-miterlimit="10" stroke-linecap="round" stroke-linejoin="round"/>
<path d="M345.959 320.395H441.515" stroke="#6A6AE2" stroke-width="0.75" stroke-miterlimit="10" stroke-linecap="round" stroke-linejoin="round"/>
<path d="M345.959 332.008H441.515" stroke="#6A6AE2" stroke-width="0.75" stroke-miterlimit="10" stroke-linecap="round" stroke-linejoin="round"/>
<path d="M492.786 86.0955H557.163" stroke="#6A6AE2" stroke-width="0.75" stroke-miterlimit="10" stroke-linecap="round" stroke-linejoin="round"/>
<path d="M492.786 97.7081H588.342" stroke="#6A6AE2" stroke-width="0.75" stroke-miterlimit="10" stroke-linecap="round" stroke-linejoin="round"/>
<path d="M492.786 109.304H588.342" stroke="#6A6AE2" stroke-width="0.75" stroke-miterlimit="10" stroke-linecap="round" stroke-linejoin="round"/>
<path d="M492.786 120.916H588.342" stroke="#6A6AE2" stroke-width="0.75" stroke-miterlimit="10" stroke-linecap="round" stroke-linejoin="round"/>
<path d="M492.786 132.529H588.342" stroke="#6A6AE2" stroke-width="0.75" stroke-miterlimit="10" stroke-linecap="round" stroke-linejoin="round"/>
<path d="M492.786 144.125H588.342" stroke="#6A6AE2" stroke-width="0.75" stroke-miterlimit="10" stroke-linecap="round" stroke-linejoin="round"/>
<path d="M492.786 178.556H557.163" stroke="#6A6AE2" stroke-width="0.75" stroke-miterlimit="10" stroke-linecap="round" stroke-linejoin="round"/>
<path d="M492.786 190.152H588.342" stroke="#6A6AE2" stroke-width="0.75" stroke-miterlimit="10" stroke-linecap="round" stroke-linejoin="round"/>
<path d="M492.786 201.764H588.342" stroke="#6A6AE2" stroke-width="0.75" stroke-miterlimit="10" stroke-linecap="round" stroke-linejoin="round"/>
<path d="M492.786 213.36H588.342" stroke="#6A6AE2" stroke-width="0.75" stroke-miterlimit="10" stroke-linecap="round" stroke-linejoin="round"/>
<path d="M492.786 224.972H588.342" stroke="#6A6AE2" stroke-width="0.75" stroke-miterlimit="10" stroke-linecap="round" stroke-linejoin="round"/>
<path d="M492.786 236.585H588.342" stroke="#6A6AE2" stroke-width="0.75" stroke-miterlimit="10" stroke-linecap="round" stroke-linejoin="round"/>
<path d="M576.796 343.383H504.332C497.957 343.383 492.786 338.22 492.786 331.855V274.131C492.786 267.766 497.957 262.603 504.332 262.603H576.796C583.171 262.603 588.342 267.766 588.342 274.131V331.855C588.342 338.22 583.171 343.383 576.796 343.383Z" fill="#6A6AE2"/>
<path d="M562.453 292.904C562.453 280.53 552.161 270.559 539.649 271.067C528.289 271.524 518.981 280.987 518.693 292.346C518.506 299.997 522.253 306.768 528.069 310.814C529.984 312.151 531.07 314.386 531.07 316.722V317.924C531.07 319.616 532.443 320.971 534.121 320.971H547.007C548.702 320.971 550.059 319.6 550.059 317.924V316.722C550.059 314.352 551.195 312.134 553.128 310.763C558.756 306.802 562.453 300.285 562.453 292.904Z" fill="white"/>
<path d="M536.58 302.655H538.207L539.038 304.127L540.802 301.842L541.768 303.857L542.751 302.604L544.548 302.553" stroke="#F4CC4D" stroke-width="0.75" stroke-miterlimit="10" stroke-linecap="round" stroke-linejoin="round"/>
<path d="M537.563 320.971L536.58 302.993" stroke="#6A6AE2" stroke-width="0.75" stroke-miterlimit="10" stroke-linecap="round" stroke-linejoin="round"/>
<path d="M543.565 320.971L544.549 302.993" stroke="#6A6AE2" stroke-width="0.75" stroke-miterlimit="10" stroke-linecap="round" stroke-linejoin="round"/>
<path d="M543.277 334.936H537.834C535.512 334.936 533.63 333.057 533.63 330.738V320.988H547.499V330.738C547.499 333.04 545.617 334.936 543.277 334.936Z" fill="#CACAFF"/>
<path d="M533.63 323.865H547.499" stroke="#6A6AE2" stroke-width="0.75" stroke-miterlimit="10" stroke-linecap="round" stroke-linejoin="round"/>
<path d="M533.63 326.591H547.499" stroke="#6A6AE2" stroke-width="0.75" stroke-miterlimit="10" stroke-linecap="round" stroke-linejoin="round"/>
<path d="M533.63 329.316H547.499" stroke="#6A6AE2" stroke-width="0.75" stroke-miterlimit="10" stroke-linecap="round" stroke-linejoin="round"/>
<path d="M533.63 332.042H547.499" stroke="#6A6AE2" stroke-width="0.75" stroke-miterlimit="10" stroke-linecap="round" stroke-linejoin="round"/>
<path d="M6.52744 416.478C19.5994 466.433 70.7685 496.361 120.802 483.293C170.835 470.241 200.81 419.153 187.721 369.198C174.649 319.244 123.48 289.315 73.4473 302.384C23.4142 315.435 -6.54457 366.524 6.52744 416.478Z" fill="#C9A645"/>
<path d="M3.69614 405.678C16.7682 455.633 67.9372 485.561 117.97 472.493C168.003 459.441 197.979 408.353 184.89 358.398C171.818 308.444 120.649 278.515 70.616 291.584C20.5829 304.635 -9.37587 355.724 3.69614 405.678Z" fill="#F4CC4D"/>
<path d="M17.2767 402.14C28.3989 444.612 71.9045 470.055 114.444 458.95C156.983 447.846 182.466 404.409 171.343 361.936C160.221 319.464 116.716 294.021 74.1764 305.126C31.6203 316.231 6.15448 359.668 17.2767 402.14Z" fill="#C9A645"/>
<path d="M67.2081 394.59C69.1579 390.765 71.8707 387.599 75.3633 385.06C78.3812 382.876 82.213 380.523 86.8755 378.018C87.6045 377.612 88.3675 377.222 89.1305 376.799C92.7757 374.819 95.7428 373.143 97.9808 371.721C98.286 371.518 98.5742 371.331 98.8624 371.145C101.202 369.622 103.016 367.912 104.305 365.999C105.593 364.086 105.932 361.97 105.322 359.634C104.457 356.316 102.287 354.014 98.8455 352.744C97.133 352.118 95.1324 351.847 92.8096 351.915C90.4529 351.983 87.7402 352.423 84.7223 353.202C83.3828 353.557 82.0434 353.98 80.721 354.471C78.4151 355.351 76.1093 356.452 73.8374 357.789C70.2261 359.888 66.9369 362.444 63.902 365.474L56.052 354.962C58.9343 351.729 62.6473 348.851 67.1234 346.346C70.4465 344.518 73.8713 342.994 77.4318 341.792L74.2782 329.773L86.2143 326.659L89.4696 339.084C93.3861 338.61 96.9974 338.643 100.304 339.185C105.797 340.065 110.256 342.029 113.681 345.076C117.089 348.123 119.377 351.898 120.564 356.401C121.955 361.75 121.7 366.355 119.767 370.231C117.835 374.074 115.139 377.256 111.663 379.728C109.035 381.624 105.729 383.672 101.728 385.906C100.473 386.617 99.1337 387.362 97.7264 388.09C94.9289 389.597 92.5553 390.934 90.6055 392.136C89.6391 392.694 88.7744 393.236 88.0115 393.744C85.6717 395.267 83.8576 397.011 82.586 398.941C81.3144 400.888 80.9753 403.037 81.5857 405.357C82.4164 408.539 84.5866 410.706 88.0793 411.857C90.2156 412.568 92.8435 412.771 95.9293 412.449C97.896 412.246 100.066 411.84 102.423 411.231C104.271 410.74 106.102 410.13 107.882 409.419C110.815 408.234 113.647 406.728 116.393 404.916C120.802 401.988 124.345 398.755 126.99 395.234L135.298 405.627C132.653 409.47 128.635 413.042 123.243 416.377C119.445 418.696 115.444 420.609 111.205 422.098L114.376 434.236L102.44 437.35L99.2354 425.128C94.6746 425.839 90.4699 425.89 86.672 425.281C81.1279 424.4 76.6688 422.471 73.244 419.441C69.8361 416.444 67.5642 412.686 66.3774 408.184C64.9871 402.953 65.2753 398.399 67.2081 394.59Z" fill="#F4CC4D"/>
<path d="M188.705 434.54L258.524 385.991C271.41 377.036 289.28 381.861 295.875 396.08L329.038 467.533H289.314L269.867 419.982L213.272 463.182L188.705 434.54Z" fill="#41BCBC"/>
<path d="M353.979 459.729C353.979 459.729 372.239 435.827 390.228 432.289L375.731 486.374H348.757L353.979 459.729Z" fill="#171659"/>
<path d="M196.809 349.884C195.131 342.452 191.435 335.817 186.264 330.586C181.567 325.812 175.65 322.223 168.987 320.277V358.415L174.395 358.483L189.146 432.289L190.926 441.193L214.646 429.462L196.809 349.884Z" fill="white"/>
<path d="M123.074 442.937L126.227 461.591C128.635 475.895 141.046 486.374 155.576 486.374H353.182L357.098 454.668H199.641L189.638 427.363L123.074 442.937Z" fill="#41BCBC"/>
<path d="M190.773 421.218L193.995 430.765L189.163 432.272L124.328 452.501C123.26 452.839 122.158 452.128 122.005 451.011L120.92 442.259C119.615 441.515 118.547 440.448 117.784 439.212C117.021 437.96 116.563 436.521 116.495 435.031C114.986 403.613 117.343 362.715 119.174 338.237C117.97 333.565 115.868 330.163 112.223 327.606C114.732 325.626 117.479 323.933 120.412 322.596C123.243 321.309 126.261 320.327 129.415 319.735L132.517 319.143L157.237 346.295L167.596 319.837L168.546 320.09C168.698 320.124 168.851 320.192 169.004 320.226C175.684 322.156 181.584 325.761 186.28 330.552C188.773 349.613 187.518 368.775 186.399 379.491C185.789 385.398 186.772 391.357 189.264 396.74L194.283 407.506C196.504 412.348 195.046 418.069 190.773 421.218Z" fill="white"/>
<path d="M167.579 319.87L161.493 335.444L157.237 346.312L148.539 336.765L132.517 319.159L134.704 318.736C136.569 318.364 138.112 317.196 138.977 315.588C140.249 315.858 142.097 316.248 144.301 316.603C149.404 317.416 156.457 318.042 162.866 316.976C163.002 317.636 163.392 318.211 163.917 318.618C164.189 318.821 164.528 319.007 164.884 319.109L167.579 319.87Z" fill="white"/>
<path d="M183.636 264.262C183.636 264.245 183.636 264.245 183.636 264.245C180.262 255.544 172.14 248.892 161.781 248.13C150.354 247.3 139.587 254.562 136.061 265.447C132.806 275.553 136.163 285.845 143.385 292.159L143.351 292.379L140.859 306.616L139.621 313.709C139.503 314.386 139.265 315.012 138.96 315.605C143.165 316.553 153.677 318.533 162.866 316.976C162.798 316.671 162.764 316.366 162.798 316.045L163.527 309.663C177.413 314.166 181.347 299.438 184.992 277.144H184.958C185.687 272.641 185.144 268.24 183.636 264.262Z" fill="#FFCFC0"/>
<path d="M183.636 264.245C183.636 264.245 183.636 264.245 183.636 264.262C180.838 272.167 157.407 260.724 157.407 260.724C154.897 275.519 147.336 287.623 143.351 292.396L143.385 292.176C136.163 285.845 132.806 275.57 136.061 265.464C139.57 254.579 150.337 247.317 161.781 248.147C172.14 248.892 180.262 255.544 183.636 264.245Z" fill="#171659"/>
<path d="M172.869 277.703C172.869 277.703 168.071 286.336 178.99 291.347L170.258 295.173" stroke="#FF8E77" stroke-width="0.75" stroke-miterlimit="10" stroke-linecap="round" stroke-linejoin="round"/>
<path d="M179.041 285.067C178.82 286.201 179.058 287.216 179.567 287.318C180.075 287.42 180.685 286.573 180.906 285.439C181.126 284.305 180.889 283.289 180.38 283.188C179.855 283.086 179.261 283.915 179.041 285.067Z" fill="#130F40"/>
<path d="M161.306 281.579C161.086 282.714 161.323 283.729 161.832 283.831C162.341 283.932 162.951 283.086 163.171 281.952C163.392 280.818 163.154 279.802 162.646 279.7C162.12 279.599 161.527 280.445 161.306 281.579Z" fill="#130F40"/>
<path d="M149.099 283.594C149.099 283.594 146.335 271.389 138.316 273.809C130.296 276.23 133.23 300.403 146.895 294.817L149.099 283.594Z" fill="#FFCFC0"/>
<path d="M145.081 287.487C145.081 287.487 144.759 280.682 141.029 278.837C137.299 276.992 137.078 281.986 137.078 281.986" stroke="#FF8E77" stroke-width="0.75" stroke-miterlimit="10" stroke-linecap="round" stroke-linejoin="round"/>
<path d="M142.487 280.411C142.487 280.411 137.723 282.951 141.588 290.026" stroke="#FF8E77" stroke-width="0.75" stroke-miterlimit="10" stroke-linecap="round" stroke-linejoin="round"/>
<path d="M162.239 270.847C162.239 270.847 166.257 269.764 169.292 272.252" stroke="#130F40" stroke-width="0.75" stroke-miterlimit="10" stroke-linecap="round" stroke-linejoin="round"/>
<path d="M179.973 274.757C179.973 274.757 183.653 273.234 185.28 276.603" stroke="#130F40" stroke-width="0.75" stroke-miterlimit="10" stroke-linecap="round" stroke-linejoin="round"/>
<path d="M161.578 295.173C161.578 295.173 162.12 300.606 168.427 301.91" stroke="#FF8E77" stroke-width="0.75" stroke-miterlimit="10" stroke-linecap="round" stroke-linejoin="round"/>
<path d="M163.544 309.646L162.747 316.553C146.064 311.593 147.641 296.256 147.641 296.256C147.641 296.256 152.541 306.904 163.544 309.646Z" fill="#FF8E77"/>
<path d="M147.217 401.819L167.817 392.288C171.174 390.731 175.107 391.272 177.922 393.642C183.229 398.094 188.417 400.786 190.417 405.932C193.469 413.753 175.192 413.11 175.192 413.11C175.192 413.11 163.646 420.93 151.795 417.595L147.217 401.819Z" fill="#FFCFC0"/>
<path d="M174.48 407.625C174.48 407.625 185.365 406.745 188.841 410.723" stroke="#FF8E77" stroke-width="0.75" stroke-miterlimit="10" stroke-linecap="round" stroke-linejoin="round"/>
<path d="M173.751 401.971C173.751 401.971 183.89 400.515 190.417 405.949" stroke="#FF8E77" stroke-width="0.75" stroke-miterlimit="10" stroke-linecap="round" stroke-linejoin="round"/>
<path d="M173.022 395.454C173.022 395.454 180.312 395.877 186.891 400.871" stroke="#FF8E77" stroke-width="0.75" stroke-miterlimit="10" stroke-linecap="round" stroke-linejoin="round"/>
<path d="M112.206 327.64C105.695 332.786 100.812 339.947 98.5064 348.259C93.4709 366.388 88.0963 392.644 89.1136 419.525C89.6222 432.509 102.728 441.193 114.986 436.859L155.576 422.521L147.624 395.826L118.513 406.66L120.683 357.806C120.683 341.877 119.768 332.888 112.206 327.64Z" fill="white"/>
<path d="M157.661 330.84L161.493 335.444L157.237 346.312L148.54 336.765L151.591 330.84L144.318 316.62C149.421 317.433 156.474 318.059 162.883 316.993C163.019 317.653 163.409 318.228 163.934 318.635L157.661 330.84Z" fill="#171659"/>
<path d="M167.58 319.87L163.493 330.315L152.388 317.5C155.796 317.653 159.441 317.568 162.866 316.993C163.087 318.008 163.833 318.838 164.884 319.126L167.58 319.87Z" fill="white"/>
<path d="M152.388 317.484L143.131 330.84L132.5 319.159L134.688 318.736C136.553 318.364 138.096 317.196 138.96 315.588C141.605 316.197 146.691 317.196 152.388 317.484Z" fill="white"/>
<path d="M143.131 330.84L152.388 317.484L163.494 330.298" stroke="#130F40" stroke-width="0.75" stroke-miterlimit="10" stroke-linecap="round" stroke-linejoin="round"/>
<path d="M118.513 406.66C108.951 409.927 101.982 415.784 101.982 415.784" stroke="#130F40" stroke-width="0.75" stroke-miterlimit="10" stroke-linecap="round" stroke-linejoin="round"/>
<path d="M189.146 432.289L193.978 430.782L190.756 421.235C195.029 418.069 196.504 412.365 194.249 407.54L189.231 396.774C186.721 391.391 185.907 385.449 186.365 379.524C187.433 365.644 186.263 351.746 182.076 342.842" stroke="#130F40" stroke-width="0.75" stroke-miterlimit="10" stroke-linecap="round" stroke-linejoin="round"/>
<path d="M120.683 357.823L118.513 406.66L147.624 395.826L149.269 400.888" stroke="#130F40" stroke-width="0.75" stroke-miterlimit="10" stroke-linecap="round" stroke-linejoin="round"/>
<path d="M154.355 418.425L155.576 422.521L116.648 436.267" stroke="#130F40" stroke-width="0.75" stroke-miterlimit="10" stroke-linecap="round" stroke-linejoin="round"/>
<path d="M123.074 441.193L183.314 422.521" stroke="#130F40" stroke-width="0.75" stroke-miterlimit="10" stroke-linecap="round" stroke-linejoin="round"/>
<path d="M162.866 454.786H244.452C245.605 454.786 246.622 454.007 246.927 452.89L262.678 394.624C263.119 392.999 261.898 391.391 260.203 391.391H178.617C177.464 391.391 176.447 392.17 176.142 393.287L160.391 451.553C159.95 453.195 161.171 454.786 162.866 454.786Z" fill="#6A6AE2"/>
<path d="M179.329 394.438L163.595 452.687" stroke="#130F40" stroke-width="0.75" stroke-miterlimit="10" stroke-linecap="round" stroke-linejoin="round"/>
<path d="M174.395 419.999L181.669 447.964C182.72 451.976 186.348 454.786 190.502 454.786H259.524C261.559 454.786 263.051 452.873 262.542 450.893L254.523 419.982H174.395V419.999Z" fill="#CACAFF"/>
<path d="M284.041 454.668L323.121 454.786" stroke="#130F40" stroke-width="0.75" stroke-miterlimit="10" stroke-linecap="round" stroke-linejoin="round"/>
<path d="M132.5 319.176L157.22 346.312L168.529 320.124" stroke="#130F40" stroke-width="0.75" stroke-miterlimit="10" stroke-linecap="round" stroke-linejoin="round"/>
<path d="M132.042 160.494V214.088C132.042 223.838 124.125 231.76 114.342 231.76H98.3197V260.69L69.3612 231.76H32.3493C22.5834 231.76 14.6487 223.855 14.6487 214.088V160.494C14.6487 150.743 22.5665 142.821 32.3493 142.821H114.342C124.108 142.838 132.042 150.743 132.042 160.494Z" fill="#41BCBC"/>
<path d="M51.0502 201.764C51.0502 204.997 48.4223 207.621 45.1839 207.621C41.9456 207.621 39.3176 204.997 39.3176 201.764C39.3176 198.531 41.9456 195.907 45.1839 195.907C48.4223 195.907 51.0502 198.531 51.0502 201.764Z" fill="white"/>
<path d="M79.2118 201.764C79.2118 204.997 76.5839 207.621 73.3455 207.621C70.1072 207.621 67.4792 204.997 67.4792 201.764C67.4792 198.531 70.1072 195.907 73.3455 195.907C76.5839 195.907 79.2118 198.531 79.2118 201.764Z" fill="white"/>
<path d="M107.39 201.764C107.39 204.997 104.762 207.621 101.524 207.621C98.2857 207.621 95.6577 204.997 95.6577 201.764C95.6577 198.531 98.2857 195.907 101.524 195.907C104.762 195.907 107.39 198.531 107.39 201.764Z" fill="white"/>
<path d="M553.026 403.596H433.869V486.238H553.026V403.596Z" fill="#F4CC4D"/>
<path d="M553.026 403.596V486.238H511.266C475.238 467.787 474.373 424.688 476.357 403.596H553.026Z" fill="#C9A645"/>
<path d="M433.614 466.873H553.263" stroke="#130F40" stroke-width="0.75" stroke-miterlimit="10" stroke-linecap="round" stroke-linejoin="round"/>
<path d="M433.614 444.917H553.263" stroke="#130F40" stroke-width="0.75" stroke-miterlimit="10" stroke-linecap="round" stroke-linejoin="round"/>
<path d="M433.614 422.962H553.263" stroke="#130F40" stroke-width="0.75" stroke-miterlimit="10" stroke-linecap="round" stroke-linejoin="round"/>
<path d="M607.331 395.488C624.71 423.368 616.165 460.034 588.257 477.385C560.333 494.736 523.626 486.204 506.231 458.341C488.852 430.461 497.397 393.795 525.305 376.444C553.229 359.076 589.953 367.607 607.331 395.488Z" fill="#C9A645"/>
<path d="M603.567 389.461C620.946 417.342 612.401 454.007 584.493 471.359C556.569 488.71 519.845 480.178 502.467 452.315C485.088 424.434 493.634 387.768 521.541 370.417C549.465 353.049 586.189 361.581 603.567 389.461Z" fill="#F4CC4D"/>
<path d="M595.989 394.167C610.773 417.866 603.5 449.048 579.763 463.792C556.027 478.553 524.796 471.291 510.029 447.592C495.244 423.893 502.518 392.711 526.254 377.967C549.991 363.206 581.221 370.468 595.989 394.167Z" fill="#C9A645"/>
<path d="M570.658 413.871C568.047 413.093 565.386 412.957 562.69 413.465C560.367 413.905 557.603 414.633 554.399 415.683C553.89 415.852 553.382 416.021 552.856 416.19C550.347 417.003 548.278 417.629 546.634 418.052C546.413 418.103 546.193 418.154 545.99 418.205C544.26 418.628 542.683 418.696 541.225 418.459C539.784 418.222 538.648 417.443 537.834 416.14C536.681 414.278 536.563 412.28 537.478 410.147C537.936 409.081 538.682 408.031 539.733 406.999C540.801 405.932 542.175 404.883 543.87 403.833C544.616 403.376 545.396 402.936 546.21 402.546C547.617 401.869 549.143 401.294 550.754 400.82C553.297 400.075 555.925 399.669 558.655 399.601L557.23 391.391C554.467 391.306 551.534 391.763 548.414 392.728C546.125 393.456 543.921 394.37 541.802 395.488L537.614 388.784L530.951 392.931L535.274 399.855C533.341 401.446 531.782 403.139 530.578 404.899C528.577 407.828 527.543 410.723 527.458 413.634C527.373 416.529 528.119 419.237 529.679 421.76C531.544 424.739 533.782 426.635 536.427 427.431C539.055 428.226 541.7 428.362 544.362 427.854C546.38 427.464 548.787 426.838 551.568 425.975C552.449 425.704 553.382 425.416 554.331 425.094C556.247 424.468 557.909 423.96 559.316 423.571C559.994 423.368 560.638 423.199 561.198 423.08C562.927 422.674 564.521 422.589 565.979 422.86C567.437 423.131 568.573 423.91 569.387 425.196C570.489 426.973 570.54 428.92 569.556 431.036C568.946 432.323 567.895 433.626 566.403 434.913C565.453 435.725 564.317 436.555 562.995 437.367C561.961 438.011 560.876 438.586 559.774 439.094C557.943 439.923 556.01 440.584 553.975 441.041C550.686 441.785 547.651 442.006 544.871 441.701L546.04 450.08C548.974 450.537 552.381 450.249 556.281 449.217C559.011 448.489 561.656 447.473 564.199 446.17L568.421 452.941L575.084 448.794L570.828 441.972C573.151 440.177 575.016 438.264 576.389 436.25C578.407 433.321 579.458 430.41 579.56 427.515C579.661 424.637 578.915 421.946 577.356 419.424C575.508 416.512 573.286 414.65 570.658 413.871Z" fill="#F4CC4D"/>
<path d="M553.026 486.238H552.873C534.41 485.019 516.777 475.218 506.231 458.324C505.604 457.308 505.01 456.293 504.451 455.243C503.756 454.295 503.094 453.313 502.467 452.298C493.023 437.147 491.243 419.424 496.058 403.596" stroke="#130F40" stroke-width="0.75" stroke-miterlimit="10" stroke-linecap="round" stroke-linejoin="round"/>
<path d="M689.9 472.103C684.373 471.596 683.644 469.006 676.269 469.006C668.114 469.006 667.486 473.356 662.926 473.356C661.281 473.356 660.196 472.797 659.501 472.07L660.806 458.002H681.677C684.763 461.845 687.611 467.144 689.9 472.103Z" fill="#FFCFC0"/>
<path d="M695.665 486.357H658.161L659.501 472.07C660.196 472.797 661.281 473.356 662.926 473.356C667.486 473.356 668.114 469.006 676.269 469.006C683.644 469.006 684.373 471.596 689.9 472.103C693.41 479.603 695.665 486.357 695.665 486.357Z" fill="#171659"/>
<path d="M601.991 477.69C610.875 474.829 626.507 469.937 634.56 471.392L634.306 458.019H613.961C606.653 462.556 598.311 469.852 591.869 475.912C592.632 477.656 594.937 479.958 601.991 477.69Z" fill="#FFCFC0"/>
<path d="M601.991 477.69C594.955 479.958 592.649 477.656 591.886 475.895C585.731 481.702 581.34 486.357 581.34 486.357H634.849L634.561 471.376C626.507 469.937 610.875 474.829 601.991 477.69Z" fill="#171659"/>
<path d="M696.648 152.013C696.377 159.157 682.525 169.567 682.525 169.567C682.525 169.567 646.208 165.894 637.172 163.219C628.135 160.528 624.88 151.217 630.525 146.139C636.188 141.061 639.155 131.175 629.83 131.158C620.505 131.158 622.201 122.897 622.201 122.897C619.369 122.626 614.707 119.765 614.571 113.553C614.419 107.323 622.048 104.581 622.048 104.581C620.217 103.227 616.962 88.8717 641.698 79.9845C644.428 79.0027 646.887 78.3256 649.108 77.8685C667.012 74.2967 669.267 86.4679 669.267 86.4679C694.292 89.2949 680.83 122.897 680.83 122.897C680.83 122.897 686.204 122.728 686.204 127.908C686.204 133.087 679.846 135.745 679.846 135.745C679.846 135.745 683.729 135.17 686.086 136.896C686.883 137.472 687.493 138.301 687.747 139.52C688.697 144.04 683.593 147.798 683 148.221C688.934 145.293 696.937 144.886 696.648 152.013Z" fill="#130F40"/>
<path d="M705.956 208.942L704.176 215.29L687.9 222.23L683.593 224.075L678.49 204.269L675.862 194.045H625.015L611.231 208.688L604.11 216.254L601.601 213.681L585.019 196.787C589.749 190.05 594.531 184.091 599.43 178.945C604.585 173.511 609.875 168.975 615.402 165.369C625.795 158.564 637.019 155.026 649.701 155.026C657.144 155.026 663.926 155.957 669.877 157.311C678.761 159.343 686.526 164.201 692.24 170.871C696.258 175.543 699.259 181.112 700.938 187.24C701.09 187.782 701.226 188.34 701.362 188.899L705.956 208.942Z" fill="#6A6AE2"/>
<path d="M704.176 215.29L695.512 246.251C694.902 245.303 694.41 244.219 694.054 243.018L687.9 222.23L704.176 215.29Z" fill="#FFCFC0"/>
<path d="M628.694 246.082L618.725 262.806L582.391 231.862C574.982 225.565 573.287 214.765 578.492 206.572C580.662 203.152 582.832 199.885 585.019 196.787L601.601 213.681L597.125 218.15L628.694 246.082Z" fill="#FFCFC0"/>
<path d="M674.76 213.326C671.776 220.588 671.199 228.663 673.319 236.213C675.235 243.001 676.71 250.026 677.863 257.559H615.69C618.861 239.632 619.318 229.661 613.232 216.678C612.062 214.189 611.451 211.481 611.231 208.688C610.248 196.296 617.029 182.602 617.029 182.602L615.402 165.369C621.2 161.56 627.27 158.784 633.696 157.074C633.306 160.375 633.459 168.653 645.191 168.653C656.466 168.653 664.638 160.595 667.826 156.871C668.521 157.007 669.199 157.159 669.877 157.311C678.761 159.343 686.526 164.201 692.24 170.871L678.49 204.269L674.76 213.326Z" fill="#6A6AE2"/>
<path d="M677.863 257.559H615.69C615.554 258.32 615.419 259.082 615.283 259.878C611.74 279.311 603.059 459.594 603.059 459.594H639.918L645.852 298.355L653.075 459.594H687.391C687.391 459.594 682.746 314.233 681.05 288.621C680.287 277.161 679.321 266.971 677.863 257.559Z" fill="#171659"/>
<path d="M663.112 129.956L662.722 153.672C662.705 154.992 663.655 156.109 664.96 156.33C665.927 156.499 666.876 156.668 667.809 156.871C664.621 160.595 656.449 168.653 645.174 168.653C633.442 168.653 633.289 160.375 633.679 157.074C634.951 156.736 636.222 156.448 637.528 156.194C638.698 155.957 639.562 154.958 639.664 153.773L639.8 152.03L640.546 142.923C626.422 144.615 625.422 129.803 626.134 107.797L626.168 107.814C626.694 93.7131 639.172 82.6422 653.804 84.4197C664.892 85.757 673.828 94.7288 675.133 105.8C676.354 116.075 671.2 125.267 663.112 129.956Z" fill="#FFCFC0"/>
<path d="M686.086 136.896H669.182C661.01 127.383 661.756 110.032 661.756 110.032C642.156 101.889 649.243 82.5237 649.243 82.5237L649.107 77.8685C667.012 74.2967 669.267 86.4679 669.267 86.4679C694.292 89.2949 680.83 122.897 680.83 122.897C680.83 122.897 686.204 122.728 686.204 127.908C686.204 133.087 679.846 135.745 679.846 135.745C679.846 135.745 683.729 135.17 686.086 136.896Z" fill="#130F40"/>
<path d="M651.583 127.908C651.583 127.908 650.532 129.194 649.023 130.633C645.649 133.815 639.986 137.743 638.816 129.55L639.393 129.482L651.583 127.908Z" fill="#FF8E77"/>
<path d="M651.583 127.908C651.583 127.908 650.532 129.194 649.023 130.633C641.698 133.341 639.85 131.022 639.393 129.482L651.583 127.908Z" fill="white"/>
<path d="M638.358 114.585C638.358 118.039 635.137 120.832 631.186 120.832C627.219 120.832 624.015 118.039 624.015 114.585C624.015 111.132 627.236 108.339 631.186 108.339C635.154 108.339 638.358 111.132 638.358 114.585Z" stroke="white" stroke-width="0.75" stroke-miterlimit="10" stroke-linecap="round" stroke-linejoin="round"/>
<path d="M650.26 120.832C654.221 120.832 657.432 118.035 657.432 114.585C657.432 111.135 654.221 108.339 650.26 108.339C646.3 108.339 643.089 111.135 643.089 114.585C643.089 118.035 646.3 120.832 650.26 120.832Z" stroke="white" stroke-width="0.75" stroke-miterlimit="10" stroke-linecap="round" stroke-linejoin="round"/>
<path d="M639.613 109.405C639.613 109.405 642.58 118.563 631.187 121.306L638.816 126.587" stroke="#FF8E77" stroke-width="0.75" stroke-miterlimit="10" stroke-linecap="round" stroke-linejoin="round"/>
<path d="M638.358 114.585C638.358 114.585 639.935 112.249 643.089 114.585" stroke="white" stroke-width="0.75" stroke-miterlimit="10" stroke-linecap="round" stroke-linejoin="round"/>
<path d="M633.933 114.518C633.933 115.652 633.526 116.566 633.001 116.566C632.492 116.566 632.068 115.652 632.068 114.518C632.068 113.383 632.475 112.469 633.001 112.469C633.526 112.469 633.933 113.383 633.933 114.518Z" fill="#130F40"/>
<path d="M650.617 116.566C651.132 116.566 651.549 115.649 651.549 114.518C651.549 113.386 651.132 112.469 650.617 112.469C650.102 112.469 649.684 113.386 649.684 114.518C649.684 115.649 650.102 116.566 650.617 116.566Z" fill="#130F40"/>
<path d="M626.863 102.888C626.863 102.888 630.678 99.7225 635.561 101.737" stroke="#130F40" stroke-width="0.75" stroke-miterlimit="10" stroke-linecap="round" stroke-linejoin="round"/>
<path d="M642.58 101.568C642.58 101.568 647.616 98.656 653.651 101.568" stroke="#130F40" stroke-width="0.75" stroke-miterlimit="10" stroke-linecap="round" stroke-linejoin="round"/>
<path d="M657.449 114.585L670.521 117.226" stroke="white" stroke-width="0.75" stroke-miterlimit="10" stroke-linecap="round" stroke-linejoin="round"/>
<path d="M659.619 135.745C659.145 136.524 652.109 147.95 639.816 152.013L640.562 142.906C653.431 142.212 659.263 136.118 659.619 135.745Z" fill="#FF8E77"/>
<path d="M662.044 124.708C662.044 124.708 666.995 113.57 674.2 117.378C681.406 121.187 674.065 143.752 662.044 135.864V124.708Z" fill="#FFCFC0"/>
<path d="M665.147 129.194C665.147 129.194 666.74 122.745 670.657 121.678C674.573 120.612 673.844 125.436 673.844 125.436" stroke="#FF8E77" stroke-width="0.75" stroke-miterlimit="10" stroke-linecap="round" stroke-linejoin="round"/>
<path d="M668.961 122.897C668.961 122.897 673.047 126.232 668.012 132.258" stroke="#FF8E77" stroke-width="0.75" stroke-miterlimit="10" stroke-linecap="round" stroke-linejoin="round"/>
<path d="M611.231 208.688C610.248 196.296 617.029 182.602 617.029 182.602" stroke="#130F40" stroke-width="0.75" stroke-miterlimit="10" stroke-linecap="round" stroke-linejoin="round"/>
<path d="M675.862 194.045L678.49 204.269" stroke="#130F40" stroke-width="0.75" stroke-miterlimit="10" stroke-linecap="round" stroke-linejoin="round"/>
<path d="M728.404 178.59C728.082 182.602 728.082 189.491 726.183 194.671C725.302 202.238 724.2 209.72 722.979 216.932C722.979 216.982 722.962 217.05 722.945 217.118C721.453 225.937 719.758 234.384 718.045 242.154C717.791 243.322 717.401 244.389 716.892 245.354C712.637 253.648 700.429 254.139 695.512 246.251L705.957 208.942L710.721 191.946L707.465 176.575C706.872 173.765 707.245 170.854 708.5 168.281C711.755 161.611 718.333 149.203 721.521 150.76C725.861 152.876 717.18 158.513 715.688 168.653C715.688 168.653 727.031 148.814 730.948 152.013C734.864 155.212 726.522 158.53 721.86 169.533C722.402 168.822 731.761 156.33 734.339 158.903C737 161.56 728.421 166.419 725.353 173.494C725.76 173.004 732.847 164.472 735.508 166.114C738.255 167.807 728.727 174.578 728.404 178.59Z" fill="#FFCFC0"/>
<path d="M704.176 215.29L700.124 229.797" stroke="#FF8E77" stroke-width="0.75" stroke-miterlimit="10" stroke-linecap="round" stroke-linejoin="round"/>
<path d="M711.127 173.088C711.127 173.088 721.69 162.373 724.674 165.978C727.658 169.584 719.808 172.022 719.384 174.358C719.384 174.358 720.876 179.419 720.029 182.602" fill="#FFCFC0"/>
<path d="M711.127 173.088C711.127 173.088 721.69 162.373 724.674 165.978C727.658 169.584 719.808 172.022 719.384 174.358C719.384 174.358 720.876 179.419 720.029 182.602" stroke="#FF8E77" stroke-width="0.75" stroke-miterlimit="10" stroke-linecap="round" stroke-linejoin="round"/>
<path d="M671.047 73.2641C671.047 73.2641 671.386 48.7355 695.648 48.7694C695.648 48.7694 671.081 48.4308 671.115 24.207C671.115 24.207 670.775 48.7355 646.513 48.7017C646.513 48.7017 671.081 49.0233 671.047 73.2641Z" fill="#F4CC4D"/>
<path d="M698.157 91.0893C698.157 91.0893 698.327 78.8165 710.466 78.8334C710.466 78.8334 698.174 78.6642 698.191 66.5437C698.191 66.5437 698.022 78.8165 685.882 78.7996C685.882 78.7996 698.174 78.9689 698.157 91.0893Z" fill="#F4CC4D"/>
<path d="M0.644287 486.374H730.591" stroke="#130F40" stroke-width="0.75" stroke-miterlimit="10" stroke-linecap="round" stroke-linejoin="round"/>
<path d="M490.09 413.11H325.969C325.969 399.787 336.787 388.987 350.13 388.987H350.418C350.299 387.802 350.249 386.6 350.249 385.382C350.249 364.933 366.847 348.36 387.328 348.36C403.35 348.36 417.016 358.5 422.187 372.719C424.679 372.042 427.29 371.687 430.003 371.687C445.466 371.687 458.199 383.299 459.962 398.281C463.115 395.843 467.066 394.404 471.355 394.404C481.698 394.404 490.09 402.783 490.09 413.11Z" fill="#6A6AE2"/>
<path d="M260.372 76.6328H66.123C66.123 60.8729 78.9238 48.0754 94.7255 48.0754H95.0646C94.9289 46.6703 94.8611 45.2484 94.8611 43.8095C94.8611 19.6195 114.512 0 138.757 0C157.712 0 173.887 12.0019 180.007 28.8283C182.957 28.0327 186.043 27.6095 189.264 27.6095C207.558 27.6095 222.631 41.355 224.717 59.0785C228.447 56.2008 233.126 54.491 238.195 54.491C250.454 54.491 260.372 64.4108 260.372 76.6328Z" fill="#6A6AE2"/>
</g>
<defs>
<clipPath id="clip0_737_522">
<rect width="736" height="487" fill="white"/>
</clipPath>
</defs>
</svg>
